<svg xmlns="http://www.w3.org/2000/svg" xmlns:xlink="http://www.w3.org/1999/xlink" width="100%" zoomAndPan="magnify" viewBox="0 0 1440 344.999992" height="345" preserveAspectRatio="xMidYMid meet" version="1.0"><defs><g></g><clipPath id="adaca1b225"><rect x="0" width="1170" y="0" height="301" class="svg-elem-1"></rect></clipPath><clipPath id="5406aac7c1"><path d="M 1261.324219 6.75 L 1347.574219 6.75 L 1347.574219 93 L 1261.324219 93 Z M 1261.324219 6.75 " clip-rule="nonzero" class="svg-elem-2"></path></clipPath><clipPath id="a6a04ec085"><path d="M 780.535156 45.75 L 1041.535156 45.75 L 1041.535156 335.25 L 780.535156 335.25 Z M 780.535156 45.75 " clip-rule="nonzero" class="svg-elem-3"></path></clipPath><clipPath id="cc66d836bd"><path d="M 780.535156 49 L 1031 49 L 1031 335.25 L 780.535156 335.25 Z M 780.535156 49 " clip-rule="nonzero" class="svg-elem-4"></path></clipPath></defs><g transform="matrix(1, 0, 0, 1, 114, 44)"><g clip-path="url(#adaca1b225)"><g fill="#000000" fill-opacity="1"><g transform="translate(1.069515, 249.03162)"><g><path d="M 279.3125 -186.578125 L 279.3125 -181.484375 C 275.832031 -181.210938 272.898438 -180.25 270.515625 -178.59375 C 268.128906 -176.945312 266.019531 -174.425781 264.1875 -171.03125 C 263.632812 -169.925781 260.742188 -162.816406 255.515625 -149.703125 L 197.03125 4.265625 L 191.671875 4.265625 L 145.4375 -116 L 94.53125 4.265625 L 89.4375 4.265625 L 28.0625 -148.046875 C 21.832031 -163.367188 17.476562 -172.632812 15 -175.84375 C 12.519531 -179.050781 8.347656 -180.929688 2.484375 -181.484375 L 2.484375 -186.578125 L 83.390625 -186.578125 L 83.390625 -181.484375 C 76.867188 -181.304688 72.53125 -180.320312 70.375 -178.53125 C 68.21875 -176.738281 67.140625 -174.515625 67.140625 -171.859375 C 67.140625 -168.367188 69.390625 -160.984375 73.890625 -149.703125 L 110.484375 -59.171875 L 139.796875 -129.890625 L 132.09375 -149.703125 C 127.875 -160.523438 124.617188 -167.75 122.328125 -171.375 C 120.035156 -175 117.394531 -177.585938 114.40625 -179.140625 C 111.425781 -180.703125 107.046875 -181.484375 101.265625 -181.484375 L 101.265625 -186.578125 L 191.671875 -186.578125 L 191.671875 -181.484375 C 185.335938 -181.398438 180.796875 -180.894531 178.046875 -179.96875 C 176.117188 -179.332031 174.601562 -178.253906 173.5 -176.734375 C 172.40625 -175.222656 171.859375 -173.503906 171.859375 -171.578125 C 171.859375 -169.472656 173.921875 -163.007812 178.046875 -152.1875 L 212.03125 -63.84375 L 242.4375 -143.78125 C 245.65625 -152.039062 247.628906 -157.679688 248.359375 -160.703125 C 249.097656 -163.734375 249.46875 -166.535156 249.46875 -169.109375 C 249.46875 -172.867188 248.179688 -175.828125 245.609375 -177.984375 C 243.035156 -180.140625 238.128906 -181.304688 230.890625 -181.484375 L 230.890625 -186.578125 Z M 279.3125 -186.578125 " class="svg-elem-5"></path></g></g></g><g fill="#000000" fill-opacity="1"><g transform="translate(282.856252, 249.03162)"><g><path d="M 76.78125 -175.84375 L 76.78125 -99.890625 L 80.5 -99.890625 C 92.332031 -99.890625 100.90625 -103.601562 106.21875 -111.03125 C 111.539062 -118.46875 114.9375 -129.429688 116.40625 -143.921875 L 121.640625 -143.921875 L 121.640625 -46.234375 L 116.40625 -46.234375 C 115.300781 -56.867188 112.984375 -65.582031 109.453125 -72.375 C 105.921875 -79.164062 101.816406 -83.726562 97.140625 -86.0625 C 92.460938 -88.40625 85.675781 -89.578125 76.78125 -89.578125 L 76.78125 -37.015625 C 76.78125 -26.742188 77.210938 -20.457031 78.078125 -18.15625 C 78.953125 -15.863281 80.582031 -13.984375 82.96875 -12.515625 C 85.351562 -11.046875 89.207031 -10.3125 94.53125 -10.3125 L 105.671875 -10.3125 C 123.097656 -10.3125 137.0625 -14.347656 147.5625 -22.421875 C 158.070312 -30.492188 165.617188 -42.785156 170.203125 -59.296875 L 175.296875 -59.296875 L 166.90625 0 L 5.640625 0 L 5.640625 -5.09375 L 11.828125 -5.09375 C 17.242188 -5.09375 21.601562 -6.054688 24.90625 -7.984375 C 27.289062 -9.265625 29.125 -11.460938 30.40625 -14.578125 C 31.414062 -16.785156 31.921875 -22.566406 31.921875 -31.921875 L 31.921875 -154.65625 C 31.921875 -163.09375 31.691406 -168.273438 31.234375 -170.203125 C 30.316406 -173.410156 28.617188 -175.890625 26.140625 -177.640625 C 22.660156 -180.203125 17.890625 -181.484375 11.828125 -181.484375 L 5.640625 -181.484375 L 5.640625 -186.578125 L 161.8125 -186.578125 L 161.8125 -131.40625 L 156.578125 -131.40625 C 153.921875 -144.882812 150.179688 -154.5625 145.359375 -160.4375 C 140.546875 -166.3125 133.738281 -170.625 124.9375 -173.375 C 119.800781 -175.019531 110.171875 -175.84375 96.046875 -175.84375 Z M 76.78125 -175.84375 " class="svg-elem-6"></path></g></g></g><g fill="#000000" fill-opacity="1"><g transform="translate(470.805804, 249.03162)"><g><path d="M 132.375 -190.84375 L 133.875 -128.65625 L 128.234375 -128.65625 C 125.578125 -144.25 119.039062 -156.789062 108.625 -166.28125 C 98.21875 -175.78125 86.960938 -180.53125 74.859375 -180.53125 C 65.492188 -180.53125 58.082031 -178.03125 52.625 -173.03125 C 47.164062 -168.03125 44.4375 -162.273438 44.4375 -155.765625 C 44.4375 -151.628906 45.398438 -147.957031 47.328125 -144.75 C 49.992188 -140.4375 54.257812 -136.171875 60.125 -131.953125 C 64.4375 -128.921875 74.390625 -123.554688 89.984375 -115.859375 C 111.816406 -105.117188 126.539062 -94.984375 134.15625 -85.453125 C 141.675781 -75.910156 145.4375 -64.992188 145.4375 -52.703125 C 145.4375 -37.109375 139.359375 -23.691406 127.203125 -12.453125 C 115.046875 -1.210938 99.613281 4.40625 80.90625 4.40625 C 75.03125 4.40625 69.476562 3.804688 64.25 2.609375 C 59.03125 1.421875 52.472656 -0.820312 44.578125 -4.125 C 40.171875 -5.957031 36.550781 -6.875 33.71875 -6.875 C 31.332031 -6.875 28.804688 -5.957031 26.140625 -4.125 C 23.484375 -2.289062 21.328125 0.503906 19.671875 4.265625 L 14.578125 4.265625 L 14.578125 -66.1875 L 19.671875 -66.1875 C 23.710938 -46.375 31.488281 -31.257812 43 -20.84375 C 54.507812 -10.4375 66.914062 -5.234375 80.21875 -5.234375 C 90.488281 -5.234375 98.671875 -8.03125 104.765625 -13.625 C 110.867188 -19.21875 113.921875 -25.726562 113.921875 -33.15625 C 113.921875 -37.5625 112.75 -41.828125 110.40625 -45.953125 C 108.070312 -50.085938 104.519531 -54.007812 99.75 -57.71875 C 94.988281 -61.4375 86.550781 -66.273438 74.4375 -72.234375 C 57.46875 -80.585938 45.265625 -87.695312 37.828125 -93.5625 C 30.398438 -99.4375 24.691406 -105.992188 20.703125 -113.234375 C 16.710938 -120.484375 14.71875 -128.46875 14.71875 -137.1875 C 14.71875 -152.039062 20.175781 -164.695312 31.09375 -175.15625 C 42.007812 -185.613281 55.769531 -190.84375 72.375 -190.84375 C 78.425781 -190.84375 84.296875 -190.109375 89.984375 -188.640625 C 94.296875 -187.546875 99.546875 -185.503906 105.734375 -182.515625 C 111.929688 -179.535156 116.269531 -178.046875 118.75 -178.046875 C 121.132812 -178.046875 123.015625 -178.78125 124.390625 -180.25 C 125.765625 -181.71875 127.046875 -185.25 128.234375 -190.84375 Z M 132.375 -190.84375 " class="svg-elem-7"></path></g></g></g><g fill="#000000" fill-opacity="1"><g transform="translate(627.586047, 249.03162)"><g></g></g></g><g fill="#000000" fill-opacity="1"><g transform="translate(698.032731, 249.03162)"><g></g></g></g><g fill="#000000" fill-opacity="1"><g transform="translate(768.479416, 249.03162)"><g></g></g></g><g fill="#000000" fill-opacity="1"><g transform="translate(838.926101, 249.03162)"><g></g></g></g><g fill="#000000" fill-opacity="1"><g transform="translate(909.372786, 249.03162)"><g></g></g></g><g fill="#000000" fill-opacity="1"><g transform="translate(964.350824, 249.03162)"><g><path d="M 117.234375 -53.109375 L 51.328125 -53.109375 L 43.484375 -34.953125 C 40.910156 -28.898438 39.625 -23.898438 39.625 -19.953125 C 39.625 -14.722656 41.734375 -10.867188 45.953125 -8.390625 C 48.429688 -6.921875 54.53125 -5.820312 64.25 -5.09375 L 64.25 0 L 2.203125 0 L 2.203125 -5.09375 C 8.898438 -6.101562 14.40625 -8.878906 18.71875 -13.421875 C 23.03125 -17.960938 28.347656 -27.335938 34.671875 -41.546875 L 101.40625 -190.4375 L 104.015625 -190.4375 L 171.3125 -37.421875 C 177.726562 -22.929688 183 -13.804688 187.125 -10.046875 C 190.25 -7.203125 194.65625 -5.550781 200.34375 -5.09375 L 200.34375 0 L 110.078125 0 L 110.078125 -5.09375 L 113.796875 -5.09375 C 121.035156 -5.09375 126.125 -6.101562 129.0625 -8.125 C 131.082031 -9.582031 132.09375 -11.691406 132.09375 -14.453125 C 132.09375 -16.097656 131.816406 -17.789062 131.265625 -19.53125 C 131.078125 -20.363281 129.703125 -23.804688 127.140625 -29.859375 Z M 112.546875 -63.296875 L 84.765625 -127.546875 L 56.140625 -63.296875 Z M 112.546875 -63.296875 " class="svg-elem-8"></path></g></g></g></g></g><path fill="#000000" d="M 1310.753906 41.777344 C 1310.753906 42.9375 1310.492188 43.976562 1309.96875 44.859375 C 1309.464844 45.722656 1308.515625 46.421875 1307.15625 46.933594 C 1306.398438 47.21875 1305.445312 47.4375 1304.320312 47.582031 C 1303.179688 47.726562 1301.765625 47.800781 1300.113281 47.800781 L 1296.996094 47.800781 L 1296.996094 36.527344 L 1301.734375 36.527344 C 1303.257812 36.527344 1304.554688 36.601562 1305.585938 36.75 C 1306.589844 36.890625 1307.429688 37.113281 1308.089844 37.414062 C 1309.058594 37.84375 1309.746094 38.429688 1310.140625 39.15625 C 1310.546875 39.90625 1310.753906 40.789062 1310.753906 41.777344 Z M 1310.066406 53.667969 C 1313.085938 52.699219 1315.375 51.25 1316.882812 49.355469 C 1318.496094 47.324219 1319.316406 44.824219 1319.316406 41.925781 C 1319.316406 39.15625 1318.636719 36.8125 1317.300781 34.964844 C 1315.96875 33.125 1314.058594 31.71875 1311.613281 30.785156 C 1310.347656 30.316406 1308.808594 29.960938 1307.042969 29.726562 C 1305.289062 29.496094 1303.371094 29.378906 1301.34375 29.378906 L 1288.644531 29.378906 L 1288.644531 70.472656 L 1296.996094 70.472656 L 1296.996094 54.953125 L 1301.261719 54.953125 L 1312.167969 70.472656 L 1322.226562 70.472656 L 1310.066406 53.667969 " fill-opacity="1" fill-rule="nonzero" class="svg-elem-9"></path><g clip-path="url(#5406aac7c1)"><path fill="#000000" d="M 1304.449219 13.78125 C 1284.546875 13.78125 1268.355469 29.972656 1268.355469 49.875 C 1268.355469 69.777344 1284.546875 85.972656 1304.449219 85.972656 C 1324.351562 85.972656 1340.542969 69.777344 1340.542969 49.875 C 1340.542969 29.972656 1324.351562 13.78125 1304.449219 13.78125 Z M 1304.449219 93.003906 C 1298.628906 93.003906 1292.980469 91.863281 1287.660156 89.613281 C 1282.527344 87.441406 1277.914062 84.332031 1273.953125 80.371094 C 1269.996094 76.414062 1266.886719 71.800781 1264.714844 66.664062 C 1262.464844 61.34375 1261.324219 55.695312 1261.324219 49.875 C 1261.324219 44.054688 1262.464844 38.40625 1264.714844 33.089844 C 1266.886719 27.953125 1269.996094 23.339844 1273.953125 19.382812 C 1277.914062 15.421875 1282.527344 12.3125 1287.660156 10.140625 C 1292.980469 7.890625 1298.628906 6.75 1304.449219 6.75 C 1310.269531 6.75 1315.917969 7.890625 1321.238281 10.140625 C 1326.375 12.3125 1330.984375 15.421875 1334.945312 19.382812 C 1338.902344 23.339844 1342.011719 27.953125 1344.183594 33.089844 C 1346.433594 38.40625 1347.574219 44.054688 1347.574219 49.875 C 1347.574219 55.695312 1346.433594 61.34375 1344.183594 66.664062 C 1342.011719 71.800781 1338.902344 76.410156 1334.945312 80.371094 C 1330.984375 84.332031 1326.375 87.441406 1321.238281 89.613281 C 1315.917969 91.863281 1310.269531 93.003906 1304.449219 93.003906 " fill-opacity="1" fill-rule="nonzero" class="svg-elem-10"></path></g><g clip-path="url(#a6a04ec085)"><path fill="#fbd5b1" d="M 821.03125 45.777344 L 1000.691406 45.777344 C 1002.015625 45.777344 1003.339844 45.84375 1004.660156 45.972656 C 1005.980469 46.101562 1007.289062 46.296875 1008.589844 46.554688 C 1009.890625 46.8125 1011.175781 47.136719 1012.445312 47.519531 C 1013.714844 47.90625 1014.960938 48.351562 1016.1875 48.859375 C 1017.414062 49.367188 1018.609375 49.933594 1019.78125 50.558594 C 1020.949219 51.183594 1022.085938 51.863281 1023.1875 52.601562 C 1024.292969 53.339844 1025.355469 54.128906 1026.382812 54.96875 C 1027.40625 55.808594 1028.386719 56.699219 1029.324219 57.636719 C 1030.261719 58.574219 1031.152344 59.558594 1031.996094 60.582031 C 1032.835938 61.609375 1033.625 62.671875 1034.363281 63.773438 C 1035.097656 64.878906 1035.78125 66.011719 1036.40625 67.183594 C 1037.03125 68.351562 1037.597656 69.550781 1038.105469 70.777344 C 1038.613281 72 1039.058594 73.246094 1039.441406 74.515625 C 1039.828125 75.785156 1040.148438 77.070312 1040.410156 78.371094 C 1040.667969 79.671875 1040.863281 80.984375 1040.992188 82.304688 C 1041.121094 83.625 1041.1875 84.945312 1041.1875 86.273438 L 1041.1875 294.789062 C 1041.1875 296.117188 1041.121094 297.441406 1040.992188 298.761719 C 1040.863281 300.082031 1040.667969 301.390625 1040.410156 302.691406 C 1040.148438 303.992188 1039.828125 305.277344 1039.441406 306.546875 C 1039.058594 307.816406 1038.613281 309.0625 1038.105469 310.289062 C 1037.597656 311.511719 1037.03125 312.710938 1036.40625 313.878906 C 1035.78125 315.050781 1035.097656 316.1875 1034.363281 317.289062 C 1033.625 318.390625 1032.835938 319.457031 1031.996094 320.480469 C 1031.152344 321.507812 1030.261719 322.488281 1029.324219 323.425781 C 1028.386719 324.363281 1027.40625 325.253906 1026.382812 326.09375 C 1025.355469 326.9375 1024.292969 327.726562 1023.1875 328.460938 C 1022.085938 329.199219 1020.949219 329.878906 1019.78125 330.503906 C 1018.609375 331.128906 1017.414062 331.695312 1016.1875 332.203125 C 1014.960938 332.710938 1013.714844 333.15625 1012.445312 333.542969 C 1011.175781 333.929688 1009.890625 334.25 1008.589844 334.507812 C 1007.289062 334.765625 1005.980469 334.960938 1004.660156 335.089844 C 1003.339844 335.222656 1002.015625 335.285156 1000.691406 335.285156 L 821.03125 335.285156 C 819.707031 335.285156 818.382812 335.222656 817.0625 335.089844 C 815.742188 334.960938 814.433594 334.765625 813.132812 334.507812 C 811.832031 334.25 810.546875 333.929688 809.277344 333.542969 C 808.007812 333.15625 806.761719 332.710938 805.535156 332.203125 C 804.308594 331.695312 803.113281 331.128906 801.941406 330.503906 C 800.773438 329.878906 799.636719 329.199219 798.535156 328.460938 C 797.429688 327.726562 796.367188 326.9375 795.34375 326.09375 C 794.316406 325.253906 793.335938 324.363281 792.398438 323.425781 C 791.460938 322.488281 790.570312 321.507812 789.730469 320.480469 C 788.886719 319.457031 788.097656 318.390625 787.359375 317.289062 C 786.625 316.1875 785.945312 315.050781 785.316406 313.878906 C 784.691406 312.710938 784.125 311.511719 783.617188 310.289062 C 783.113281 309.0625 782.664062 307.816406 782.28125 306.546875 C 781.894531 305.277344 781.574219 303.992188 781.316406 302.691406 C 781.054688 301.390625 780.863281 300.082031 780.730469 298.761719 C 780.601562 297.441406 780.535156 296.117188 780.535156 294.789062 L 780.535156 86.273438 C 780.535156 84.945312 780.601562 83.625 780.730469 82.304688 C 780.863281 80.984375 781.054688 79.671875 781.316406 78.371094 C 781.574219 77.070312 781.894531 75.785156 782.28125 74.515625 C 782.664062 73.246094 783.113281 72 783.617188 70.777344 C 784.125 69.550781 784.691406 68.351562 785.316406 67.183594 C 785.945312 66.011719 786.625 64.878906 787.359375 63.773438 C 788.097656 62.671875 788.886719 61.609375 789.730469 60.582031 C 790.570312 59.558594 791.460938 58.574219 792.398438 57.636719 C 793.335938 56.699219 794.316406 55.808594 795.34375 54.96875 C 796.367188 54.128906 797.429688 53.339844 798.535156 52.601562 C 799.636719 51.863281 800.773438 51.183594 801.941406 50.558594 C 803.113281 49.933594 804.308594 49.367188 805.535156 48.859375 C 806.761719 48.351562 808.007812 47.90625 809.277344 47.519531 C 810.546875 47.136719 811.832031 46.8125 813.132812 46.554688 C 814.433594 46.296875 815.742188 46.101562 817.0625 45.972656 C 818.382812 45.84375 819.707031 45.777344 821.03125 45.777344 Z M 821.03125 45.777344 " fill-opacity="1" fill-rule="nonzero" class="svg-elem-11"></path></g><g clip-path="url(#cc66d836bd)"><path fill="#eabc96" d="M 1013.164062 325.921875 L 833.5 325.921875 C 832.171875 325.921875 830.847656 325.855469 829.53125 325.726562 C 828.210938 325.597656 826.898438 325.402344 825.597656 325.144531 C 824.296875 324.882812 823.011719 324.5625 821.742188 324.175781 C 820.472656 323.792969 819.226562 323.347656 818 322.839844 C 816.777344 322.332031 815.578125 321.765625 814.410156 321.140625 C 813.238281 320.515625 812.105469 319.832031 811 319.097656 C 809.898438 318.359375 808.835938 317.570312 807.808594 316.730469 C 806.785156 315.886719 805.800781 314.996094 804.863281 314.058594 C 803.925781 313.121094 803.035156 312.140625 802.195312 311.117188 C 801.355469 310.089844 800.566406 309.027344 799.828125 307.921875 C 799.089844 306.820312 798.410156 305.683594 797.785156 304.515625 C 797.160156 303.34375 796.59375 302.148438 796.085938 300.921875 C 795.578125 299.695312 795.132812 298.449219 794.746094 297.179688 C 794.363281 295.910156 794.039062 294.625 793.78125 293.324219 C 793.523438 292.023438 793.328125 290.714844 793.199219 289.394531 C 793.070312 288.074219 793.003906 286.75 793.003906 285.425781 L 793.003906 76.90625 C 793 74.425781 793.222656 71.960938 793.675781 69.519531 C 794.125 67.078125 794.796875 64.699219 795.6875 62.382812 C 796.578125 60.066406 797.671875 57.847656 798.972656 55.734375 C 800.269531 53.617188 801.753906 51.636719 803.417969 49.796875 C 801.710938 50.621094 800.070312 51.558594 798.496094 52.613281 C 796.921875 53.667969 795.429688 54.828125 794.019531 56.09375 C 792.605469 57.355469 791.289062 58.710938 790.070312 60.160156 C 788.847656 61.609375 787.734375 63.136719 786.726562 64.742188 C 785.722656 66.347656 784.832031 68.015625 784.058594 69.746094 C 783.285156 71.472656 782.636719 73.25 782.113281 75.070312 C 781.589844 76.890625 781.195312 78.738281 780.933594 80.617188 C 780.667969 82.492188 780.535156 84.378906 780.535156 86.273438 L 780.535156 294.792969 C 780.535156 296.117188 780.601562 297.441406 780.730469 298.761719 C 780.863281 300.082031 781.054688 301.390625 781.316406 302.691406 C 781.574219 303.992188 781.894531 305.277344 782.28125 306.546875 C 782.664062 307.816406 783.113281 309.0625 783.617188 310.289062 C 784.125 311.511719 784.691406 312.710938 785.316406 313.878906 C 785.945312 315.050781 786.625 316.1875 787.359375 317.289062 C 788.097656 318.390625 788.886719 319.457031 789.730469 320.480469 C 790.570312 321.507812 791.460938 322.488281 792.398438 323.425781 C 793.335938 324.363281 794.316406 325.253906 795.34375 326.09375 C 796.367188 326.9375 797.429688 327.726562 798.535156 328.460938 C 799.636719 329.199219 800.773438 329.878906 801.941406 330.503906 C 803.113281 331.128906 804.308594 331.695312 805.535156 332.203125 C 806.761719 332.710938 808.007812 333.15625 809.277344 333.542969 C 810.546875 333.929688 811.832031 334.25 813.132812 334.507812 C 814.433594 334.765625 815.742188 334.960938 817.0625 335.089844 C 818.382812 335.222656 819.707031 335.285156 821.03125 335.285156 L 1000.722656 335.285156 C 1003.558594 335.289062 1006.363281 334.996094 1009.140625 334.410156 C 1011.914062 333.820312 1014.597656 332.953125 1017.1875 331.796875 C 1019.78125 330.644531 1022.222656 329.234375 1024.515625 327.566406 C 1026.8125 325.898438 1028.90625 324.011719 1030.804688 321.902344 C 1025.230469 324.59375 1019.351562 325.933594 1013.164062 325.921875 Z M 1013.164062 325.921875 " fill-opacity="1" fill-rule="nonzero" class="svg-elem-12"></path></g><path fill="#ffffff" d="M 987.207031 65.625 C 992.429688 65.550781 997.675781 64.953125 1002.878906 65.625 L 1001.960938 65.507812 C 1004.019531 65.765625 1006.007812 66.28125 1007.929688 67.0625 L 1007.105469 66.714844 C 1008.640625 67.390625 1010.085938 68.214844 1011.445312 69.195312 L 1011.921875 69.542969 C 1012.035156 69.617188 1012.582031 70.039062 1012.128906 69.6875 C 1011.675781 69.332031 1012.214844 69.761719 1012.320312 69.84375 L 1012.847656 70.277344 C 1013.386719 70.730469 1013.921875 71.199219 1014.433594 71.679688 C 1015.398438 72.582031 1016.304688 73.539062 1017.152344 74.554688 C 1017.375 74.765625 1017.566406 75 1017.722656 75.261719 C 1017.753906 75.335938 1017.214844 74.585938 1017.417969 74.867188 L 1017.554688 75.046875 L 1017.867188 75.472656 C 1018.230469 75.984375 1018.578125 76.503906 1018.914062 77.035156 C 1019.683594 78.285156 1020.355469 79.585938 1020.929688 80.9375 L 1020.570312 80.082031 C 1021.808594 83.113281 1022.632812 86.253906 1023.050781 89.503906 L 1022.925781 88.59375 C 1023.074219 89.707031 1023.1875 90.824219 1023.273438 91.941406 C 1023.300781 92.882812 1023.636719 93.695312 1024.289062 94.371094 C 1024.957031 95.039062 1025.761719 95.382812 1026.703125 95.394531 C 1028.453125 95.320312 1030.289062 93.882812 1030.144531 91.960938 C 1029.59375 84.722656 1027.875 77.410156 1023.441406 71.492188 C 1021.074219 68.34375 1018.285156 65.628906 1015.074219 63.347656 C 1013.203125 62.011719 1011.1875 60.945312 1009.03125 60.148438 C 1006.769531 59.355469 1004.441406 58.859375 1002.050781 58.652344 C 997.117188 58.125 992.125 58.652344 987.207031 58.746094 C 986.761719 58.765625 986.339844 58.867188 985.933594 59.046875 C 985.53125 59.230469 985.175781 59.484375 984.867188 59.804688 C 984.5625 60.125 984.324219 60.488281 984.160156 60.902344 C 983.992188 61.3125 983.910156 61.742188 983.910156 62.183594 C 983.910156 62.628906 983.992188 63.058594 984.160156 63.46875 C 984.324219 63.878906 984.5625 64.246094 984.867188 64.566406 C 985.175781 64.886719 985.53125 65.140625 985.933594 65.320312 C 986.339844 65.503906 986.761719 65.605469 987.207031 65.625 Z M 987.207031 65.625 " fill-opacity="1" fill-rule="nonzero" class="svg-elem-13"></path><path fill="#ffffff" d="M 1032.179688 108.835938 C 1032.179688 109.355469 1032.15625 109.871094 1032.105469 110.378906 C 1032.054688 110.886719 1031.976562 111.382812 1031.878906 111.859375 C 1031.777344 112.339844 1031.65625 112.796875 1031.511719 113.226562 C 1031.367188 113.65625 1031.199219 114.058594 1031.015625 114.425781 C 1030.832031 114.792969 1030.628906 115.117188 1030.414062 115.40625 C 1030.195312 115.695312 1029.96875 115.9375 1029.726562 116.136719 C 1029.484375 116.335938 1029.238281 116.484375 1028.980469 116.585938 C 1028.722656 116.6875 1028.464844 116.738281 1028.203125 116.738281 C 1027.945312 116.738281 1027.683594 116.6875 1027.429688 116.585938 C 1027.171875 116.484375 1026.925781 116.335938 1026.683594 116.136719 C 1026.441406 115.9375 1026.214844 115.695312 1025.996094 115.40625 C 1025.777344 115.117188 1025.578125 114.792969 1025.394531 114.425781 C 1025.207031 114.058594 1025.042969 113.65625 1024.898438 113.226562 C 1024.753906 112.796875 1024.632812 112.339844 1024.53125 111.859375 C 1024.433594 111.382812 1024.355469 110.886719 1024.304688 110.378906 C 1024.253906 109.871094 1024.230469 109.355469 1024.230469 108.835938 C 1024.230469 108.316406 1024.253906 107.804688 1024.304688 107.296875 C 1024.355469 106.785156 1024.433594 106.292969 1024.53125 105.8125 C 1024.632812 105.332031 1024.753906 104.878906 1024.898438 104.445312 C 1025.042969 104.015625 1025.207031 103.617188 1025.394531 103.25 C 1025.578125 102.882812 1025.777344 102.554688 1025.996094 102.265625 C 1026.214844 101.976562 1026.441406 101.734375 1026.683594 101.535156 C 1026.925781 101.335938 1027.171875 101.1875 1027.429688 101.085938 C 1027.683594 100.984375 1027.945312 100.933594 1028.203125 100.933594 C 1028.464844 100.933594 1028.722656 100.984375 1028.980469 101.085938 C 1029.238281 101.1875 1029.484375 101.335938 1029.726562 101.535156 C 1029.96875 101.734375 1030.195312 101.976562 1030.414062 102.265625 C 1030.628906 102.554688 1030.832031 102.882812 1031.015625 103.25 C 1031.199219 103.617188 1031.367188 104.015625 1031.511719 104.445312 C 1031.65625 104.878906 1031.777344 105.332031 1031.878906 105.8125 C 1031.976562 106.292969 1032.054688 106.785156 1032.105469 107.296875 C 1032.15625 107.804688 1032.179688 108.316406 1032.179688 108.835938 Z M 1032.179688 108.835938 " fill-opacity="1" fill-rule="nonzero" class="svg-elem-14"></path><path fill="#ffebdc" d="M 840.378906 105.878906 L 903.308594 105.878906 C 938.089844 105.878906 951.574219 127.957031 951.574219 150.628906 C 951.574219 173.296875 938.078125 195.378906 903.308594 195.378906 L 871.089844 195.378906 L 871.089844 245.40625 L 840.378906 245.40625 Z M 871.089844 171.542969 L 894.933594 171.542969 C 909.199219 171.542969 921.902344 168.410156 921.902344 150.628906 C 921.902344 132.847656 909.199219 129.71875 894.933594 129.71875 L 871.089844 129.71875 Z M 871.089844 171.542969 " fill-opacity="1" fill-rule="nonzero" class="svg-elem-15"></path><path fill="#ffebdc" d="M 955.28125 240.332031 C 959.867188 240.710938 966.492188 239.808594 966.492188 233.789062 C 966.492188 229.355469 962.957031 226.792969 959.046875 226.792969 C 953.707031 226.792969 950.847656 230.78125 950.921875 236.195312 L 940.761719 236.195312 C 941.140625 225.441406 948.136719 217.992188 958.96875 217.992188 C 967.390625 217.992188 976.644531 223.183594 976.644531 232.585938 C 976.644531 237.550781 974.164062 241.988281 969.269531 243.34375 L 969.269531 243.496094 C 975.0625 244.773438 978.574219 249.589844 978.574219 255.457031 C 978.574219 266.507812 969.320312 272.753906 959.015625 272.753906 C 947.230469 272.753906 939.238281 265.683594 939.460938 253.574219 L 949.613281 253.574219 C 949.84375 259.289062 952.714844 263.953125 958.867188 263.953125 C 963.679688 263.953125 967.441406 260.648438 967.441406 255.679688 C 967.441406 247.707031 960.445312 247.859375 955.257812 247.859375 Z M 955.28125 240.332031 " fill-opacity="1" fill-rule="nonzero" class="svg-elem-16"></path><path fill="#ff3131" d="M 843.125 108.308594 L 906.054688 108.308594 C 940.835938 108.308594 954.320312 130.390625 954.320312 153.058594 C 954.320312 175.730469 940.835938 197.816406 906.054688 197.816406 L 873.800781 197.816406 L 873.800781 247.839844 L 843.125 247.839844 Z M 873.808594 173.972656 L 897.648438 173.972656 C 911.914062 173.972656 924.617188 170.84375 924.617188 153.058594 C 924.617188 135.277344 911.914062 132.152344 897.648438 132.152344 L 873.808594 132.152344 Z M 873.808594 173.972656 " fill-opacity="1" fill-rule="nonzero" class="svg-elem-17"></path><path fill="#ff3131" d="M 958.03125 242.765625 C 962.613281 243.144531 969.230469 242.238281 969.230469 236.222656 C 969.230469 231.785156 965.703125 229.226562 961.789062 229.226562 C 956.449219 229.226562 953.589844 233.214844 953.664062 238.628906 L 943.511719 238.628906 C 943.882812 227.875 950.878906 220.429688 961.714844 220.429688 C 970.136719 220.429688 979.390625 225.617188 979.390625 235.019531 C 979.390625 239.980469 976.910156 244.421875 972.015625 245.78125 L 972.015625 245.929688 C 977.808594 247.207031 981.320312 252.019531 981.320312 257.886719 C 981.320312 268.945312 972.066406 275.183594 961.765625 275.183594 C 949.980469 275.183594 941.980469 268.113281 942.207031 256.007812 L 952.363281 256.007812 C 952.585938 261.71875 955.464844 266.382812 961.617188 266.382812 C 966.429688 266.382812 970.1875 263.078125 970.1875 258.109375 C 970.1875 250.140625 963.191406 250.289062 958.007812 250.289062 Z M 958.03125 242.765625 " fill-opacity="1" fill-rule="nonzero" class="svg-elem-18"></path></svg>